<svg width="50" height="50" viewBox="0 0 50 50" fill="none" xmlns="http://www.w3.org/2000/svg">
<path d="M33.7159 25.9949C33.7316 24.77 34.057 23.569 34.6617 22.5036C35.2663 21.4382 36.1307 20.5431 37.1742 19.9015C36.5113 18.9547 35.6367 18.1755 34.6199 17.6259C33.6032 17.0762 32.4723 16.7712 31.317 16.735C28.8526 16.4763 26.4635 18.2097 25.2077 18.2097C23.9276 18.2097 21.9941 16.7607 19.912 16.8035C18.5653 16.847 17.2528 17.2387 16.1024 17.9402C14.952 18.6418 14.003 19.6294 13.3478 20.8068C10.5096 25.7208 12.6266 32.9427 15.3454 36.9149C16.7057 38.8599 18.2954 41.0325 20.3756 40.9555C22.4112 40.871 23.1715 39.6574 25.6286 39.6574C28.0629 39.6574 28.7762 40.9555 30.8986 40.9065C33.0829 40.871 34.4591 38.9528 35.7716 36.9894C36.749 35.6035 37.5011 34.0718 38 32.4509C36.731 31.9142 35.648 31.0158 34.8862 29.8677C34.1244 28.7197 33.7173 27.3727 33.7159 25.9949Z" fill="white"/>
<path d="M29.7069 14.1227C30.8978 12.693 31.4846 10.8553 31.3425 9C29.523 9.1911 27.8423 10.0607 26.6352 11.4356C26.045 12.1072 25.593 12.8886 25.305 13.735C25.017 14.5815 24.8987 15.4764 24.9567 16.3686C25.8668 16.378 26.7672 16.1807 27.59 15.7917C28.4128 15.4026 29.1366 14.832 29.7069 14.1227Z" fill="white"/>
</svg>
