<svg width="12" height="12" viewBox="0 0 12 12" fill="none" xmlns="http://www.w3.org/2000/svg">
<path d="M10.3646 1.17864L6.92018 2.14739C6.70454 2.20804 6.55556 2.40471 6.55556 2.62871V10.3399C6.55556 10.6712 6.87197 10.9109 7.19093 10.8212L10.6354 9.85249C10.851 9.79184 11 9.59517 11 9.37117V1.65996C11 1.32863 10.6836 1.08893 10.3646 1.17864Z" fill="#575C64"/>
<path d="M1.63537 1.17864L5.07982 2.14739C5.29546 2.20804 5.44444 2.40471 5.44444 2.62871V10.3399C5.44444 10.6712 5.12803 10.9109 4.80907 10.8212L1.36463 9.85249C1.14899 9.79184 1 9.59517 1 9.37117V1.65996C1 1.32863 1.31642 1.08893 1.63537 1.17864Z" fill="#575C64"/>
</svg>
