<svg width="12" height="12" viewBox="0 0 12 12" fill="none" xmlns="http://www.w3.org/2000/svg">
<g clip-path="url(#clip0_12733_11230)">
<path fill-rule="evenodd" clip-rule="evenodd" d="M11.6275 7.1254C11.6275 5.9949 10.8475 5.0509 9.8 4.7819V4.4499C9.8 2.3544 8.0955 0.649902 6 0.649902C3.905 0.649902 2.2005 2.3544 2.2005 4.4499V4.7819C1.1525 5.0509 0.372498 5.9949 0.372498 7.1254C0.37316 7.7691 0.629194 8.38623 1.0844 8.84135C1.53961 9.29647 2.1568 9.55237 2.8005 9.5529C2.95963 9.5529 3.11224 9.48969 3.22476 9.37717C3.33728 9.26464 3.4005 9.11203 3.4005 8.9529V4.4499C3.4005 3.0164 4.5665 1.8499 6 1.8499C7.4335 1.8499 8.6 3.0164 8.6 4.4499V8.7044L7.33 9.9744C7.27441 10.0302 7.20832 10.0744 7.13555 10.1046C7.06278 10.1347 6.98476 10.1501 6.906 10.1499H5.9445C5.78537 10.1499 5.63276 10.2131 5.52023 10.3256C5.40771 10.4382 5.3445 10.5908 5.3445 10.7499C5.3445 10.909 5.40771 11.0616 5.52023 11.1742C5.63276 11.2867 5.78537 11.3499 5.9445 11.3499H6.906C7.387 11.3499 7.839 11.1629 8.179 10.8229L9.4765 9.5249C10.6835 9.3859 11.6275 8.3694 11.6275 7.1254" fill="#575C64"/>
</g>
<defs>
<clipPath id="clip0_12733_11230">
<rect width="12" height="12" fill="white"/>
</clipPath>
</defs>
</svg>
