<svg width="50" height="50" viewBox="0 0 50 50" fill="none" xmlns="http://www.w3.org/2000/svg">
<path fill-rule="evenodd" clip-rule="evenodd" d="M7.53761 8.37131C7.23251 8.28534 6.90478 8.34719 6.65197 8.53843C6.39915 8.72968 6.2504 9.02827 6.25 9.34534V37.1748C6.25086 37.7175 6.60986 38.1944 7.13099 38.3451L22.4396 42.6944C22.7443 42.7833 23.0731 42.7232 23.3266 42.5321C23.5802 42.341 23.7286 42.0414 23.7272 41.7239V13.8766C23.7271 13.3344 23.3675 12.8581 22.8462 12.7099L7.53761 8.37131Z" fill="#835EEB"/>
<path fill-rule="evenodd" clip-rule="evenodd" d="M27.1396 12.7071C26.6239 12.8603 26.271 13.3345 26.2728 13.8716V29.1144C26.2732 29.4309 26.422 29.7289 26.6748 29.9198C26.9276 30.1107 27.2553 30.1724 27.5604 30.0866L42.8655 25.756C43.3882 25.6093 43.7495 25.1336 43.75 24.5914V9.34869C43.7513 9.02803 43.6001 8.72577 43.3427 8.53405C43.0853 8.34232 42.7521 8.28384 42.4446 8.37643L27.1396 12.7071Z" fill="#835EEB"/>
<path fill-rule="evenodd" clip-rule="evenodd" d="M27.5462 42.7L42.8512 38.3329C43.3794 38.1877 43.7469 37.7057 43.75 37.154V29.2644C43.7496 28.945 43.6009 28.6442 43.3481 28.4515C43.0952 28.2588 42.7675 28.1965 42.4624 28.2831L27.1396 32.6539C26.6239 32.8085 26.271 33.2871 26.2728 33.8292V41.7368C26.2785 42.0502 26.4273 42.3435 26.6761 42.5318C26.9249 42.72 27.2459 42.7821 27.5462 42.7Z" fill="#CDBEF7"/>
</svg>
