<svg width="50" height="50" viewBox="0 0 50 50" fill="none" xmlns="http://www.w3.org/2000/svg">
<path d="M24.1335 24.5777L12.1113 37.0665C12.4891 38.4221 13.7558 39.4221 15.2446 39.4221C15.8446 39.4221 16.4002 39.2665 16.8891 38.9776L16.9335 38.9554L30.4668 31.311L24.1335 24.5777Z" fill="#DA4536"/>
<path d="M36.3116 22.4666L30.4449 19.1333L23.8672 24.8666L30.4671 31.3332L36.2893 28.0443C37.3116 27.511 38.0004 26.4444 38.0004 25.2444C38.0004 24.0444 37.3116 22.9999 36.3116 22.4666Z" fill="#F2B41C"/>
<path d="M12.1111 13.3556C12.0444 13.6223 12 13.8889 12 14.1778V36.2666C12.0222 36.5777 12.0444 36.8221 12.1111 37.0888L24.5555 24.9111L12.1111 13.3556Z" fill="#547DBF"/>
<path d="M24.2224 25.2221L30.4446 19.1333L16.9335 11.4444C16.4446 11.1556 15.8669 11 15.2446 11C13.7335 11 12.4669 12 12.1113 13.3555L24.2224 25.2221Z" fill="#109E58"/>
</svg>
